# xmcd
#
# Track frame offsets:
#	150
#	20002
#	37611
#	56272
#	69618
#	82337
#	101840
#	119370
#	141040
#	160151
#	175062
#
# Disc length: 2629 seconds
#
# Revision: 4
# Processed by: cddbd v1.5PL3 Copyright (c) Steve Scherf et al.
# Submitted via: MusicWizard 7.0.2
#
DISCID=8e0a430b
DTITLE=Lúnasa - The Merry Sisters Of Fate
DYEAR=2001
DGENRE=Irish Folk
TTITLE0=Aoibhneas
TTITLE1=Donogh And Mike's
TTITLE2=Killarney Boys Of Pleasure
TTITLE3=The Merry Sisters Of Fate
TTITLE4=Iníon Ní Scannláin
TTITLE5=Casu
TTITLE6=Páistin Fionn
TTITLE7=The Minor Bee
TTITLE8=Scully's
TTITLE9=Return From Fingal
TTITLE10=Morning Nightcap
EXTD=
EXTT0=
EXTT1=
EXTT2=
EXTT3=
EXTT4=
EXTT5=
EXTT6=
EXTT7=
EXTT8=
EXTT9=
EXTT10=
PLAYORDER=
